<?xml version="1.0" encoding="UTF-8"?>
<svg xmlns="http://www.w3.org/2000/svg" viewBox="0 0 245.16 49.18">
  <defs>
    <style>
      .cls-1 {
        fill: #fff;
      }
    </style>
  </defs>
  <g id="file-5_图像" data-name="file-5 图像">
    <path class="cls-1" d="M36.92,34.89c-.74.57-1.56.83-2.47.49-.48-.17-.79-.05-1.13.29-1.75,1.78-3.51,3.54-5.28,5.3-.27.27-.24.43.02.67.86.84,1.71,1.69,2.55,2.55.25.26.45.25.71.03,1.44-1.22,2.8-2.51,3.99-3.97,2.47-3.02,4.24-6.43,5.52-10.1,1.42-4.07,2.13-8.27,2.44-12.54,0-.11.04-.24-.1-.32-.18,0-.28.15-.39.26-1.64,1.63-3.29,3.27-4.93,4.91-.23.23-.44.47-.39.84.13,1.06-.79,2.12-1.88,2.08-.47-.02-.8.13-1.12.45-5.2,5.22-10.41,10.42-15.62,15.63-.2.2-.3.5-.56.64-.21-.09-.34-.26-.49-.4-1.3-1.3-2.59-2.6-3.88-3.9q-.42-.42,0-.85c1.45-1.45,2.9-2.91,4.36-4.35.3-.3.44-.62.44-1.05-.02-1.14,0-2.29,0-3.43,0-.25-.02-.5-.3-.57-.43-.1-.84-.58-1.34.41-.74,1.45-1.91,2.62-3.35,3.37-.63.33-.82.73-.73,1.25.23,1.42-1.11,2.54-2.48,2.09-.9-.3-1.45-1.23-1.29-2.19.16-.96.96-1.57,2.01-1.52.31.02.57-.02.8-.25,1.4-1.4,2.8-2.8,4.2-4.2.25-.25.33-.5.24-.87-.46-1.96,1.29-3.72,3.2-3.23,1.07.27,1.75.96,1.98,2.02.23,1.05-.06,1.99-.94,2.66-.33.25-.45.53-.45.93.02,1.33,0,2.67,0,4.01,0,.55-.17.98-.57,1.37-1.23,1.2-2.43,2.43-3.65,3.64-.26.26-.25.42.11.71.59.48,1.12,1.01,1.61,1.6.36.43.56.49.9.14,4.92-4.93,9.85-9.86,14.78-14.78.24-.24.33-.46.26-.82-.26-1.34.91-2.53,2.25-2.27.31.06.55.02.78-.21,2.1-2.11,4.21-4.22,6.32-6.32.22-.22.33-.47.31-.79-.06-1.27-.12-2.55-.16-3.82-.01-.35-.2-.49-.51-.55-.46-.08-.93-.14-1.38-.26-.47-.12-.8,0-1.14.34-1.37,1.39-2.75,2.77-4.13,4.15-2.26,2.26-4.52,4.52-6.8,6.77-.28.28-.39.52-.22.92.22.51.21,1.07.07,1.6-.4,1.47-1.86,2.27-3.34,1.86-1.34-.37-2.17-1.84-1.82-3.23.36-1.43,1.76-2.28,3.22-1.91.38.1.64.02.9-.25,3.45-3.46,6.91-6.91,10.36-10.37.37-.37.34-.46-.17-.63-1.28-.43-2.57-.83-3.85-1.28-.42-.15-.88-.04-1.19.27-3.58,3.62-7.19,7.21-10.78,10.82-.32.32-.67.47-1.15.44-1.36-.08-2.72-.09-4.08,0-.63.04-1.07-.13-1.49-.56-1.43-1.47-2.89-2.92-4.33-4.38-.23-.23-.46-.37-.81-.32-1.4.22-2.39-.72-2.25-2.11.03-.32.07-.64-.28-.88-.69-.48-1.33-1.05-1.77-1.77-.2-.32-.47-.42-.78-.35-1.61.36-3.23.74-4.84,1.09-.34.08-.52.27-.51.61,0,.72,0,1.44-.1,2.15-.11.8.21,1.36.78,1.92,2.99,2.94,5.95,5.92,8.91,8.89.45.45.42.42.92-.01.39-.34.53-.87.38-1.37-.12-.4-.1-.85,0-1.27.34-1.32,1.76-2.15,3.12-1.83,1.43.34,2.35,1.74,2.04,3.12-.35,1.58-1.81,2.47-3.37,2.03-.43-.12-.71-.04-1,.3-.27.32-.56.63-.87.92-.9.84-.76.98-1.29.45-3.05-3.05-6.1-6.1-9.15-9.15-.11-.11-.19-.27-.37-.26-.12.11-.11.25-.09.38.2,2.04.34,4.08.67,6.1.68,4.1,1.85,8.04,3.72,11.76,1.47,2.92,3.32,5.57,5.66,7.85,3.14,3.06,6.84,5.21,10.99,6.61.36.12.7.15,1.07.03,2.46-.79,4.78-1.87,6.93-3.29.15-.1.34-.18.4-.44-1.37-1.31-2.76-2.63-4.11-4.03.24-.21.45-.39.65-.58,2.09-2.08,4.17-4.17,6.27-6.24.34-.34.44-.65.31-1.13-.25-.94.03-1.77.72-2.45.72-.7,1.59-.96,2.55-.68,2.1.61,2.66,3.05,1.04,4.61M22.43,16.43c3.21-3.21,6.46-6.39,9.7-9.69-.28-.14-.43-.23-.59-.3-3.33-1.5-6.45-3.35-9.34-5.59-.51-.39-.52-.39-1.05.02-2.64,2.05-5.5,3.75-8.5,5.2-.58.28-.6.36-.13.82,2,2,4.01,4,6,6.01.32.32.5.25.84-.15.82-.94,1.71-1.81,2.65-2.62.55-.47.73-.84.5-1.52-.61-1.79.94-3.71,2.97-3.36,1.5.25,2.45,1.62,2.18,3.14-.26,1.43-1.66,2.39-3.12,2.09-.43-.09-.72.03-1.01.33-1.38,1.4-2.77,2.79-4.16,4.18q-.57.57-1.12.02c-1.2-1.21-2.4-2.41-3.61-3.61-1.3-1.3-2.6-2.59-3.89-3.89-.27-.27-.52-.36-.9-.2-.55.24-1.12.43-1.68.65-.45.18-.48.32-.15.66.38.4.79.78,1.17,1.19.2.21.48.33.76.32,1.38-.03,2.14.74,2.14,2.12,0,.42.14.72.62,1,1.44.85,2.62,2.06,3.49,3.48.36.59.8.94,1.39.87.75-.08,1.5-.11,2.24-.03,1.08.11,1.92-.21,2.6-1.13M36.22,33.28c.21-.7-.05-1.3-.66-1.5-.56-.19-1.22.15-1.41.73-.17.52.08,1.08.58,1.33.54.27,1.07.09,1.49-.56M18.93,26.1c.52.06.86-.21,1.11-.63.23-.38.2-.76-.06-1.11-.26-.36-.62-.52-1.07-.46-.49.07-.88.49-.92.98-.05.59.23.97.94,1.21M25.78,7.11c-.44-.34-.89-.4-1.3-.16-.4.24-.63.69-.55,1.11.09.49.44.85.92.95.37.08.85-.15,1.09-.51.27-.4.23-.83-.17-1.39M14.66,21.55c-.03-.13-.03-.26-.08-.38-.18-.41-.49-.65-.94-.68-.48-.04-.8.2-1.04.6-.23.39-.21.76.05,1.11.25.34.61.56,1.06.49.53-.09.85-.46.95-1.13M25.5,23.13c.04.08.07.16.12.23.37.53,1.06.64,1.57.26.48-.36.58-1.05.22-1.52-.39-.53-1.05-.6-1.57-.18-.38.3-.42.71-.35,1.22Z"/>
  </g>
  <g id="DeepSafe">
    <g>
      <path class="cls-1" d="M59.28,36.55V6.45h7.22c4.84,0,8.44,1.34,10.79,4.02,2.35,2.68,3.53,6.36,3.53,11.03s-1.18,8.35-3.53,11.03c-2.35,2.68-5.95,4.02-10.79,4.02h-7.22ZM63.83,32.34h2.49c3.5,0,6.02-.98,7.57-2.95,1.55-1.96,2.32-4.59,2.32-7.89s-.77-5.93-2.32-7.89c-1.55-1.96-4.07-2.95-7.57-2.95h-2.49v21.67Z"/>
      <path class="cls-1" d="M93.2,37.07c-2.06,0-3.88-.47-5.46-1.4-1.58-.93-2.81-2.23-3.7-3.89-.89-1.66-1.33-3.6-1.33-5.8s.44-4.2,1.31-5.89c.87-1.69,2.11-3.01,3.7-3.96,1.59-.95,3.43-1.42,5.53-1.42s3.84.47,5.33,1.4c1.49.93,2.64,2.17,3.46,3.72s1.23,3.25,1.23,5.12v.92c0,.33-.02.7-.04,1.1h-16.04c.14,1.98.79,3.48,1.94,4.49,1.15,1.02,2.49,1.53,4.04,1.53,1.35,0,2.41-.28,3.2-.84.79-.56,1.37-1.33,1.74-2.3h4.6c-.52,2.04-1.59,3.75-3.23,5.14-1.63,1.39-3.73,2.08-6.28,2.08ZM93.2,18.66c-1.41,0-2.65.42-3.74,1.27-1.09.85-1.79,2.03-2.11,3.55h11.35c-.12-1.43-.67-2.59-1.68-3.48-1-.89-2.28-1.33-3.83-1.33Z"/>
      <path class="cls-1" d="M116.42,37.07c-2.06,0-3.88-.47-5.46-1.4-1.58-.93-2.81-2.23-3.7-3.89-.89-1.66-1.33-3.6-1.33-5.8s.44-4.2,1.31-5.89c.87-1.69,2.11-3.01,3.7-3.96,1.59-.95,3.43-1.42,5.53-1.42s3.84.47,5.33,1.4c1.49.93,2.64,2.17,3.46,3.72s1.23,3.25,1.23,5.12v.92c0,.33-.02.7-.04,1.1h-16.04c.14,1.98.79,3.48,1.94,4.49,1.15,1.02,2.49,1.53,4.04,1.53,1.35,0,2.41-.28,3.2-.84.79-.56,1.37-1.33,1.74-2.3h4.6c-.52,2.04-1.59,3.75-3.23,5.14-1.63,1.39-3.73,2.08-6.28,2.08ZM116.42,18.66c-1.41,0-2.65.42-3.74,1.27-1.09.85-1.79,2.03-2.11,3.55h11.35c-.12-1.43-.67-2.59-1.68-3.48-1-.89-2.28-1.33-3.83-1.33Z"/>
      <path class="cls-1" d="M129.45,46.01V15.22h3.96l.34,3.27h.26c.57-1.06,1.44-1.96,2.6-2.69s2.54-1.1,4.15-1.1,3.18.42,4.56,1.27c1.38.85,2.47,2.09,3.29,3.74.82,1.65,1.23,3.71,1.23,6.17s-.42,4.49-1.27,6.15c-.85,1.66-1.99,2.92-3.42,3.76-1.43.85-3.04,1.27-4.82,1.27-1.58,0-2.9-.32-3.96-.95-1.06-.63-1.85-1.35-2.37-2.15v12.04h-4.56ZM139.56,32.72c1.61,0,2.95-.57,4.02-1.72,1.08-1.15,1.61-2.87,1.61-5.16s-.54-4-1.61-5.12c-1.07-1.12-2.42-1.68-4.02-1.68s-2.99.57-4.06,1.7c-1.07,1.13-1.61,2.85-1.61,5.14s.54,3.97,1.61,5.12c1.08,1.15,2.43,1.72,4.06,1.72Z"/>
      <path class="cls-1" d="M162.91,37.07c-2.12,0-3.98-.39-5.57-1.16-1.59-.77-2.84-1.88-3.74-3.31-.9-1.43-1.37-3.14-1.4-5.12h4.82c.03,1.52.55,2.82,1.57,3.89,1.02,1.08,2.44,1.61,4.28,1.61,1.69,0,3.01-.39,3.96-1.18.95-.79,1.42-1.81,1.42-3.07,0-1.06-.28-1.94-.84-2.64-.56-.7-1.43-1.33-2.6-1.89-1.18-.56-2.69-1.14-4.56-1.74-2.49-.8-4.33-1.91-5.5-3.33-1.18-1.42-1.76-3.16-1.76-5.22,0-2.38.86-4.3,2.58-5.76,1.72-1.46,4.08-2.19,7.09-2.19s5.27.75,7.05,2.26c1.78,1.5,2.69,3.59,2.75,6.26h-4.86c0-.72-.2-1.41-.6-2.09-.4-.67-.98-1.23-1.72-1.68-.75-.44-1.66-.67-2.75-.67-1.35-.03-2.48.29-3.4.97-.92.67-1.38,1.58-1.38,2.73,0,1.4.56,2.5,1.68,3.29,1.12.79,2.94,1.6,5.46,2.43,1.58.52,2.97,1.14,4.19,1.87,1.22.73,2.18,1.66,2.88,2.79.7,1.13,1.05,2.57,1.05,4.32,0,1.61-.4,3.06-1.2,4.36-.8,1.3-1.96,2.34-3.46,3.12-1.5.77-3.32,1.16-5.44,1.16Z"/>
      <path class="cls-1" d="M183.89,37.07c-1.69,0-3.11-.29-4.26-.88-1.15-.59-2.01-1.38-2.58-2.37-.57-.99-.86-2.07-.86-3.25,0-2.09.77-3.73,2.3-4.9,1.53-1.18,3.71-1.76,6.51-1.76h5.5v-.47c0-3.21-1.49-4.82-4.47-4.82-1.23,0-2.27.27-3.12.8-.85.53-1.41,1.38-1.7,2.56h-4.56c.23-2.24,1.2-4.01,2.9-5.31,1.71-1.3,3.86-1.96,6.47-1.96,3.15,0,5.45.77,6.88,2.32,1.43,1.55,2.15,3.68,2.15,6.41v13.12h-3.87l-.39-3.14h-.3c-.63,1-1.42,1.86-2.37,2.58-.95.72-2.36,1.07-4.26,1.07ZM184.75,33.24c1.86,0,3.26-.57,4.19-1.7.93-1.13,1.44-2.57,1.53-4.32h-4.99c-1.63,0-2.79.27-3.46.8-.67.53-1.01,1.27-1.01,2.21s.34,1.68,1.01,2.21c.67.53,1.58.8,2.73.8Z"/>
      <path class="cls-1" d="M199.11,46.01v-4h3.48c1,0,1.73-.21,2.17-.62.44-.42.67-1.11.67-2.09v-20.21h-5.42v-3.87h5.42v-2.97c0-2.38.59-4.08,1.76-5.12,1.18-1.03,2.85-1.55,5.03-1.55h5.2v4h-4.64c-1,0-1.72.2-2.15.6-.43.4-.65,1.1-.65,2.11v2.92h7.44v3.87h-7.44v20.25c0,2.38-.59,4.08-1.76,5.12-1.18,1.03-2.87,1.55-5.07,1.55h-4.04Z"/>
      <path class="cls-1" d="M232.52,37.07c-2.06,0-3.88-.47-5.46-1.4-1.58-.93-2.81-2.23-3.7-3.89-.89-1.66-1.33-3.6-1.33-5.8s.44-4.2,1.31-5.89c.87-1.69,2.11-3.01,3.7-3.96,1.59-.95,3.43-1.42,5.53-1.42s3.84.47,5.33,1.4c1.49.93,2.64,2.17,3.46,3.72.82,1.55,1.23,3.25,1.23,5.12v.92c0,.33-.01.7-.04,1.1h-16.04c.14,1.98.79,3.48,1.94,4.49,1.15,1.02,2.49,1.53,4.04,1.53,1.35,0,2.41-.28,3.2-.84.79-.56,1.37-1.33,1.74-2.3h4.6c-.52,2.04-1.59,3.75-3.23,5.14-1.63,1.39-3.73,2.08-6.28,2.08ZM232.52,18.66c-1.41,0-2.65.42-3.74,1.27-1.09.85-1.79,2.03-2.11,3.55h11.35c-.12-1.43-.67-2.59-1.68-3.48-1-.89-2.28-1.33-3.83-1.33Z"/>
    </g>
  </g>
</svg>