<svg version="1.1" id="Layer_1" xmlns="http://www.w3.org/2000/svg" xmlns:xlink="http://www.w3.org/1999/xlink" x="0px" y="0px"
	 width="100%" viewBox="0 0 3272 768" enable-background="new 0 0 3272 768" xml:space="preserve">
<path fill="#000000" opacity="1.000000" stroke="none" 
	d="
M2381.000000,769.000000 
	C1587.333374,769.000000 794.166687,769.000000 1.000000,769.000000 
	C1.000000,513.000000 1.000000,257.000000 1.000000,1.000000 
	C1091.666626,1.000000 2182.333252,1.000000 3273.000000,1.000000 
	C3273.000000,257.000000 3273.000000,513.000000 3273.000000,769.000000 
	C2975.833252,769.000000 2678.666748,769.000000 2381.000000,769.000000 
M653.890564,369.849091 
	C650.303101,383.142975 639.322571,391.372742 627.004028,389.331207 
	C623.122559,388.687897 620.915955,389.799988 618.370972,392.348816 
	C548.773926,462.049713 479.104156,531.678040 409.506256,601.378113 
	C408.001190,602.885437 407.193756,605.089294 405.573059,607.777222 
	C383.953033,586.018982 364.012268,565.950745 343.797943,545.607178 
	C345.397430,543.904236 346.594818,542.558777 347.865845,541.286926 
	C367.775696,521.363708 387.641846,501.396088 407.674408,481.596924 
	C410.413910,478.889313 411.448334,476.169495 411.399719,472.398132 
	C411.217072,458.234009 411.337280,444.066132 411.318970,429.899658 
	C411.314453,426.409882 412.299133,422.321411 410.809082,419.623993 
	C409.660858,417.545441 405.348267,417.216217 402.444305,416.104950 
	C401.977509,415.926300 401.440491,415.822174 401.069305,415.519897 
	C398.038422,413.051666 395.945831,414.282745 393.496216,416.782288 
	C375.881500,434.755768 358.229919,452.696259 340.337860,470.392273 
	C336.610352,474.078949 334.983795,477.137299 336.262512,482.747711 
	C338.688049,493.389954 332.645142,504.081879 322.928345,508.807159 
	C313.357361,513.461426 301.762939,511.383179 294.385193,503.691010 
	C287.051270,496.044464 285.444702,484.270020 290.462769,474.943390 
	C295.526581,465.531738 305.836578,460.540527 316.595520,462.684967 
	C319.642609,463.292267 321.504517,462.489441 323.578430,460.390350 
	C342.319946,441.421021 361.098877,422.487335 380.034058,403.711884 
	C382.940765,400.829712 384.478363,398.487671 382.479675,394.339081 
	C381.302826,391.896301 381.084473,388.842773 381.000366,386.046967 
	C380.498169,369.353638 391.956757,354.998688 408.438538,351.444397 
	C424.124298,348.061737 440.427795,356.629120 446.861816,371.635529 
	C453.349823,386.767792 448.206573,404.322754 434.221771,413.460510 
	C431.261749,415.394623 430.410400,417.385040 430.431519,420.695068 
	C430.561066,441.027252 430.611847,461.362213 430.352692,481.691956 
	C430.319183,484.321289 429.005066,487.570831 427.170837,489.441437 
	C410.018768,506.933746 392.621643,524.185730 375.302948,541.514771 
	C374.036377,542.782104 372.828613,544.108154 371.833038,545.155029 
	C383.101196,556.293335 394.068085,567.133789 405.310913,578.247009 
	C406.215363,577.393982 407.560974,576.187195 408.837646,574.911438 
	C430.765686,552.999512 452.686310,531.080139 474.606415,509.160187 
	C517.739502,466.027496 560.871887,422.894073 604.001526,379.757965 
	C605.847351,377.911865 607.703125,376.512604 606.534241,373.022614 
	C603.425049,363.739136 605.294312,355.115540 612.200195,348.080231 
	C619.257141,340.891083 627.902283,339.332153 637.570618,341.780243 
	C639.230774,342.200592 641.913147,341.692383 643.067261,340.548065 
	C671.707825,312.150543 700.223938,283.627228 728.670959,255.035553 
	C729.933167,253.766953 731.071960,251.623260 731.025940,249.920807 
	C730.516968,231.104156 729.729065,212.295227 729.107849,193.481216 
	C729.012024,190.579346 727.740112,189.523132 724.939758,189.080582 
	C716.552307,187.755081 708.171387,186.318939 699.874634,184.524841 
	C696.726990,183.844223 694.688782,184.330383 692.388000,186.636948 
	C643.189270,235.960159 593.924622,285.217773 544.595215,334.410309 
	C542.362122,336.637177 541.976990,338.216431 543.381348,341.186401 
	C550.407043,356.044617 545.844360,373.321320 532.625671,383.147644 
	C519.653625,392.790497 501.891449,392.018921 489.731537,381.284241 
	C477.524689,370.508087 474.456360,353.016998 482.303894,338.942902 
	C490.262573,324.669434 507.069885,317.802795 522.544678,322.958923 
	C526.207275,324.179291 528.183228,323.379700 530.712463,320.843048 
	C576.724854,274.697357 622.830811,228.645065 668.909851,182.565887 
	C670.152710,181.323059 671.317444,180.002090 672.908997,178.300018 
	C670.480103,177.538818 668.749329,177.017426 667.031982,176.454956 
	C648.204468,170.288635 629.333435,164.249039 610.591187,157.833527 
	C606.804749,156.537430 604.519714,156.718445 601.553833,159.697052 
	C553.339417,208.118713 504.964783,256.380798 456.708313,304.760681 
	C454.157684,307.317841 451.646973,308.474396 447.988312,308.446014 
	C426.823181,308.281647 405.655609,308.286346 384.490356,308.441498 
	C380.855377,308.468109 378.302185,307.406067 375.748566,304.806061 
	C355.194824,283.878967 334.473541,263.116394 313.886475,242.221817 
	C311.805969,240.110199 310.052979,239.383453 306.956360,240.184006 
	C288.062195,245.068695 271.889496,228.972214 276.652008,210.058945 
	C277.403076,207.076309 276.968018,205.202713 274.776184,203.066910 
	C265.585754,194.111572 256.499817,185.044815 247.554245,175.845184 
	C245.294968,173.521729 243.361145,173.052032 240.141251,173.811783 
	C218.270920,178.972183 196.357773,183.964401 174.380447,188.644608 
	C170.803055,189.406433 169.727112,190.741516 169.594223,194.072464 
	C169.062775,207.391220 168.470978,220.709885 167.655045,234.013458 
	C167.428635,237.704895 168.685867,240.177963 171.249832,242.732697 
	C212.807510,284.140717 254.269958,325.644318 295.764313,367.115936 
	C297.000641,368.351562 298.349243,369.474823 300.321411,371.263550 
	C304.062714,367.221527 307.302704,363.411987 310.888306,359.961578 
	C313.085876,357.846893 313.158417,356.179901 312.507233,353.128662 
	C311.144989,346.745544 309.634491,339.848724 310.703583,333.593323 
	C314.040466,314.068787 333.865204,302.105438 352.923584,307.139252 
	C371.900208,312.151489 382.912628,332.594482 376.645203,351.174957 
	C370.316040,369.938354 349.747253,379.536316 331.335052,372.077576 
	C328.318542,370.855621 326.555420,371.231964 324.458374,373.534393 
	C320.983185,377.349976 317.172852,380.858368 313.553802,384.545319 
	C309.047607,389.136078 304.592285,393.776642 298.876526,399.673401 
	C254.791214,355.569458 211.457626,312.217529 168.455170,269.196899 
	C168.455170,272.094269 168.209930,275.583862 168.496460,279.029205 
	C169.946411,296.463196 171.027496,313.948181 173.166687,331.300812 
	C180.388687,389.883667 194.802887,446.546509 220.200241,500.063446 
	C266.795471,598.248230 341.201080,665.094971 444.934052,698.640076 
	C447.431702,699.447754 450.598785,699.651428 453.061005,698.881409 
	C486.659882,688.373230 518.236328,673.518555 547.681946,654.188049 
	C549.017090,653.311584 550.273438,652.315125 552.602234,650.621094 
	C534.314514,632.755737 516.500183,615.352783 497.347168,596.642151 
	C499.895752,594.963989 501.826721,594.104553 503.225403,592.710938 
	C532.504517,563.536926 561.704529,534.283508 590.993713,505.119598 
	C593.106018,503.016357 593.876892,501.388794 592.730591,498.266022 
	C587.038696,482.759918 593.084167,465.925903 607.057251,457.385895 
	C620.963257,448.886871 638.855713,451.366516 650.029480,463.341248 
	C661.060730,475.163269 662.311584,492.954987 653.043030,506.203735 
	C643.611023,519.685974 626.551880,524.717712 611.397034,518.071411 
	C607.997986,516.580688 606.163757,517.117615 603.705261,519.592285 
	C579.156128,544.303528 554.487305,568.895874 529.860291,593.529846 
	C528.703552,594.686890 527.622070,595.919128 527.175720,596.397766 
	C541.370300,610.606567 555.299072,624.549316 569.447571,638.712097 
	C571.088013,637.426514 573.336365,635.718140 575.527649,633.939453 
	C625.151184,593.659363 660.730408,542.982788 685.688049,484.549591 
	C712.849060,420.957733 725.799316,354.162689 729.929199,285.431061 
	C729.984558,284.510376 729.936157,283.583466 729.936157,281.562622 
	C727.889221,283.453857 726.572021,284.594482 725.339966,285.820526 
	C703.366882,307.687378 681.474243,329.635864 659.373169,351.372406 
	C655.502197,355.179535 652.198486,358.584076 654.289307,364.546326 
	C654.743530,365.841736 654.150146,367.504517 653.890564,369.849091 
M344.581268,245.918640 
	C357.660950,258.996552 370.788605,272.027130 383.776733,285.195374 
	C386.159485,287.611145 388.543396,288.803406 392.039124,288.765625 
	C408.201263,288.591034 424.369019,288.835632 440.527679,288.541077 
	C443.152649,288.493225 446.390015,287.142242 448.252930,285.293701 
	C493.083282,240.808517 537.766052,196.174591 582.466125,151.558090 
	C583.577393,150.448898 584.580566,149.231415 585.901733,147.768066 
	C584.224670,146.944260 583.207458,146.406921 582.160461,145.935684 
	C535.773865,125.058594 492.100342,99.651665 452.236298,67.926033 
	C449.876740,66.048149 448.478851,66.351868 446.298767,68.081848 
	C409.440826,97.330536 369.283691,121.217628 326.829803,141.353607 
	C325.268982,142.093887 323.771362,142.967346 322.958923,143.399033 
	C352.996704,173.451126 382.747131,203.215744 412.676086,233.158951 
	C412.684540,233.152740 413.267151,232.829788 413.720459,232.377304 
	C429.759766,216.366394 445.741211,200.296951 461.868958,184.375748 
	C464.095398,182.177841 463.441803,180.616165 462.307190,178.326523 
	C454.924377,163.427780 458.726349,146.114899 471.469269,135.928238 
	C484.150177,125.791145 501.837982,125.846191 514.427429,136.061966 
	C526.998291,146.262619 530.774841,163.769150 523.491333,178.078308 
	C515.994995,192.805542 499.550171,200.190659 483.410278,195.629715 
	C479.919769,194.643341 477.970703,195.396805 475.613983,197.770676 
	C455.890503,217.638016 436.060486,237.399612 416.252197,257.182709 
	C414.882996,258.550171 413.430359,259.834106 411.631561,261.516998 
	C399.760468,249.541168 388.308044,237.920059 376.781189,226.373260 
	C353.117493,202.668610 329.436920,178.980515 305.664612,155.385071 
	C304.355621,154.085815 301.747498,152.576767 300.420471,153.052429 
	C288.845154,157.201385 277.424225,161.781052 265.888702,166.259506 
	C266.153534,166.926666 266.214264,167.492569 266.527344,167.807938 
	C274.393036,175.731308 282.215851,183.700409 290.259094,191.440277 
	C291.284241,192.426773 293.579773,192.721024 295.125671,192.442352 
	C312.591827,189.293762 327.031464,203.507660 324.198669,220.934021 
	C323.873779,222.932800 324.779022,225.794586 326.159668,227.291992 
	C331.915833,233.534943 338.071808,239.409241 344.581268,245.918640 
M1205.547241,437.109192 
	C1219.157471,416.293488 1226.020630,393.427795 1225.399902,368.585022 
	C1223.751465,302.613342 1171.880371,251.643707 1105.867676,251.000763 
	C1083.210693,250.780090 1060.549927,250.940338 1037.890869,250.954758 
	C1036.641724,250.955551 1035.392700,251.215851 1034.282471,251.339844 
	C1034.282471,331.278168 1034.282471,410.826660 1034.282471,490.524902 
	C1035.464233,490.626007 1036.277832,490.756195 1037.091431,490.756439 
	C1060.083740,490.762848 1083.082153,491.059540 1106.065308,490.601044 
	C1115.161011,490.419556 1124.412354,489.367371 1133.266357,487.307922 
	C1163.630371,480.245178 1187.401611,463.247894 1205.547241,437.109192 
M1837.034058,265.555725 
	C1837.034058,332.869324 1837.033813,400.182953 1837.034302,467.496552 
	C1837.034302,472.328461 1836.902466,477.166199 1837.108765,481.989380 
	C1837.190552,483.898346 1837.432129,486.620789 1838.652710,487.481537 
	C1840.850586,489.031525 1843.953003,490.426880 1846.475830,490.136139 
	C1850.758423,489.642578 1852.064941,485.920563 1852.067383,481.895172 
	C1852.077271,465.399994 1852.074463,448.904846 1852.076172,432.409668 
	C1852.076416,430.634949 1852.076294,428.860229 1852.076294,426.555054 
	C1854.449829,426.555054 1856.244751,426.555115 1858.039673,426.555084 
	C1879.366821,426.554596 1900.700562,426.863770 1922.017822,426.403778 
	C1930.764893,426.215057 1939.720215,425.305878 1948.162842,423.114563 
	C1989.731812,412.325104 2016.189697,372.764801 2012.014404,328.500580 
	C2008.177734,287.826447 1972.495117,253.047684 1931.063965,251.324539 
	C1902.453613,250.134613 1873.757935,250.954666 1845.100342,250.988113 
	C1839.714844,250.994400 1837.339478,253.610580 1837.061157,259.082001 
	C1836.968262,260.910309 1837.038452,262.746857 1837.034058,265.555725 
M2920.500000,250.938980 
	C2905.076904,250.938980 2889.654053,250.938980 2874.253418,250.938980 
	C2874.253418,331.187347 2874.253418,410.749573 2874.253418,490.516724 
	C2875.887451,490.611664 2877.195068,490.753754 2878.502930,490.754028 
	C2926.820557,490.764862 2975.138428,490.767883 3023.456055,490.739410 
	C3025.102295,490.738464 3026.821777,490.645355 3028.380127,490.174805 
	C3031.883057,489.117126 3033.917480,486.265778 3033.112305,482.964966 
	C3032.497803,480.446716 3030.320068,477.954346 3028.181885,476.295532 
	C3026.879639,475.285187 3024.333984,475.767944 3022.346680,475.766937 
	C2979.860352,475.745422 2937.374023,475.750458 2894.887695,475.750305 
	C2893.095947,475.750305 2891.304199,475.750305 2889.471680,475.750305 
	C2889.235352,474.623871 2888.986328,473.989685 2888.985840,473.355347 
	C2888.961670,442.865204 2889.015137,412.374847 2888.886475,381.885223 
	C2888.869629,377.867584 2891.211182,378.282410 2893.755127,378.284027 
	C2916.247803,378.298401 2938.740723,378.295593 2961.233398,378.289948 
	C2966.731201,378.288544 2972.237061,378.431824 2977.724854,378.189209 
	C2982.743896,377.967285 2985.478760,374.767151 2985.153076,370.092621 
	C2984.836182,365.547394 2981.690430,363.308807 2975.314209,363.302368 
	C2948.489502,363.275360 2921.665039,363.289764 2894.840332,363.289032 
	C2893.067383,363.289001 2891.294434,363.289062 2889.240967,363.289062 
	C2889.240967,330.594543 2889.240967,298.546478 2889.240967,265.946838 
	C2891.286133,265.946838 2893.075195,265.946838 2894.864258,265.946838 
	C2937.183838,265.946747 2979.503662,265.951172 3021.823242,265.932312 
	C3023.812988,265.931427 3025.882080,266.032684 3027.775879,265.547363 
	C3031.700195,264.541779 3033.544678,261.683960 3033.270020,257.707001 
	C3033.005371,253.880203 3030.656738,251.677353 3026.956543,251.064178 
	C3025.331299,250.794800 3023.632812,250.942947 3021.967529,250.942703 
	C2988.478271,250.937851 2954.989258,250.939026 2920.500000,250.938980 
M1343.601440,318.500214 
	C1343.601440,301.097961 1343.601440,283.695740 1343.601440,265.948059 
	C1346.201172,265.948059 1348.012085,265.948059 1349.823120,265.948059 
	C1392.142456,265.947937 1434.461914,265.951324 1476.781250,265.935852 
	C1478.606567,265.935181 1480.497070,266.031769 1482.243774,265.611450 
	C1486.178467,264.664734 1488.140869,261.898773 1487.933594,257.910004 
	C1487.723267,253.856827 1485.295166,251.589203 1481.329956,251.017746 
	C1480.185181,250.852768 1479.001587,250.940872 1477.835815,250.940796 
	C1429.851685,250.937805 1381.867432,250.937973 1333.883301,250.937759 
	C1332.267822,250.937759 1330.652466,250.937775 1328.854858,250.937775 
	C1328.854858,331.060638 1328.854858,410.624603 1328.854858,490.496979 
	C1330.580078,490.596832 1332.031738,490.753876 1333.483398,490.754272 
	C1381.634155,490.766815 1429.784912,490.769104 1477.935669,490.744141 
	C1479.585083,490.743286 1481.762451,491.048676 1482.773071,490.162018 
	C1484.836304,488.351868 1487.372925,485.948639 1487.639282,483.558533 
	C1487.879639,481.401611 1485.794434,478.428589 1483.897095,476.779053 
	C1482.548706,475.606812 1479.808716,475.788727 1477.689453,475.786316 
	C1435.036865,475.737335 1392.384277,475.749390 1349.731689,475.749115 
	C1347.823608,475.749084 1345.915527,475.749084 1343.968506,475.749084 
	C1343.968506,442.889679 1343.968506,410.835999 1343.968506,378.293945 
	C1346.127930,378.293945 1347.929199,378.293915 1349.730591,378.293915 
	C1375.888672,378.293915 1402.046631,378.300293 1428.204712,378.281189 
	C1430.198486,378.279755 1432.233032,378.317169 1434.176880,377.953125 
	C1438.044922,377.228790 1439.728271,374.487579 1439.805908,370.770477 
	C1439.881104,367.174957 1438.025757,364.685760 1434.586792,363.769653 
	C1432.696411,363.266083 1430.629395,363.307770 1428.641846,363.305725 
	C1402.317261,363.278656 1375.992554,363.287537 1349.667969,363.287384 
	C1347.751099,363.287354 1345.834229,363.287354 1343.601318,363.287354 
	C1343.601318,348.126221 1343.601318,333.813232 1343.601440,318.500214 
M1679.500000,265.947021 
	C1696.333130,265.946960 1713.166382,265.955963 1729.999512,265.934784 
	C1731.992554,265.932251 1734.052368,266.054230 1735.964111,265.612000 
	C1739.900757,264.701416 1741.900146,261.921722 1741.696411,257.938477 
	C1741.490356,253.908020 1739.073853,251.598450 1735.102173,251.017731 
	C1733.957642,250.850418 1732.773071,250.942001 1731.606812,250.941925 
	C1683.440552,250.939041 1635.274170,250.936996 1587.107910,250.949677 
	C1585.658936,250.950058 1584.210083,251.108459 1582.590576,251.203156 
	C1582.590576,331.083832 1582.590576,410.656311 1582.590576,490.507172 
	C1583.997925,490.605743 1585.123169,490.753235 1586.248535,490.753479 
	C1634.914795,490.764679 1683.581177,490.767212 1732.247437,490.741547 
	C1733.729370,490.740784 1735.273193,490.639404 1736.680786,490.222534 
	C1740.188110,489.183777 1742.350830,486.344269 1741.522583,483.087555 
	C1740.854492,480.460815 1738.444702,477.997101 1736.227661,476.161163 
	C1735.100830,475.227905 1732.695801,475.762299 1730.868530,475.761658 
	C1688.535522,475.747131 1646.202515,475.750244 1603.869507,475.750092 
	C1601.911499,475.750092 1599.953491,475.750092 1597.710693,475.750092 
	C1597.710693,443.098236 1597.710693,410.913452 1597.710693,378.292572 
	C1599.912598,378.292572 1601.717651,378.292572 1603.522705,378.292572 
	C1629.689209,378.292572 1655.855591,378.297089 1682.022095,378.282806 
	C1683.851196,378.281830 1685.702637,378.296387 1687.504761,378.034912 
	C1691.670776,377.430573 1693.505737,374.624084 1693.544922,370.697418 
	C1693.582886,366.894226 1691.524414,364.396973 1687.779785,363.625549 
	C1686.009033,363.260773 1684.137207,363.302673 1682.311157,363.301392 
	C1655.978027,363.283051 1629.644897,363.288757 1603.311768,363.288696 
	C1601.405273,363.288696 1599.498779,363.288696 1597.684570,363.288696 
	C1597.684570,330.380280 1597.684570,298.322510 1597.684570,265.947021 
	C1624.876465,265.947021 1651.688232,265.947021 1679.500000,265.947021 
M2352.156494,444.851776 
	C2356.455811,434.914459 2360.903809,425.037445 2364.973145,415.006836 
	C2366.375977,411.549133 2368.208252,410.357880 2371.974365,410.374176 
	C2406.794434,410.524872 2441.615479,410.529358 2476.435547,410.368591 
	C2480.275879,410.350861 2481.900391,411.725098 2483.310791,415.119659 
	C2492.643311,437.579590 2502.200439,459.946320 2511.701660,482.335938 
	C2512.415771,484.018341 2513.076416,485.772949 2514.096191,487.265778 
	C2516.206299,490.355865 2519.157959,491.591278 2522.769775,490.084625 
	C2526.448975,488.549744 2528.311035,485.826752 2527.216797,481.742188 
	C2526.659180,479.661407 2525.868164,477.628876 2525.025879,475.640900 
	C2494.613770,403.851959 2464.185059,332.070038 2433.746094,260.292572 
	C2432.902100,258.303101 2432.134766,256.230743 2430.958984,254.442383 
	C2427.829590,249.683792 2421.576172,249.783905 2418.533447,254.571671 
	C2417.736572,255.825623 2417.200928,257.252838 2416.605469,258.626556 
	C2385.140869,331.226532 2353.679932,403.827881 2322.243896,476.440155 
	C2321.455078,478.262115 2320.662354,480.165100 2320.377930,482.104584 
	C2319.875488,485.529175 2321.041016,488.362122 2324.413086,489.872772 
	C2327.956299,491.459991 2330.979492,490.594696 2333.233887,487.541779 
	C2334.305420,486.091125 2335.053223,484.371704 2335.780762,482.701324 
	C2341.166504,470.330261 2346.510010,457.940765 2352.156494,444.851776 
M2141.954346,275.382324 
	C2160.788086,260.244446 2186.725830,263.773956 2200.916016,283.405670 
	C2204.960693,289.001312 2208.872070,290.303040 2212.912354,287.398193 
	C2216.550293,284.782593 2216.665283,280.155029 2213.219971,275.019287 
	C2200.071533,255.418564 2176.011230,246.662384 2152.581299,252.950882 
	C2130.472412,258.884796 2113.582275,279.164368 2112.016357,301.656219 
	C2110.308350,326.188293 2123.580811,348.224243 2145.201172,357.616577 
	C2154.658447,361.724884 2164.629395,361.759216 2174.522949,362.862579 
	C2205.218506,366.285767 2228.188721,396.210754 2223.560547,426.622833 
	C2219.140625,455.665955 2193.768799,476.980438 2165.201416,475.649628 
	C2135.833496,474.281525 2112.541992,450.883484 2110.915283,421.115112 
	C2110.550781,414.447815 2107.815186,411.340149 2102.613281,411.684448 
	C2097.594971,412.016571 2095.603760,415.034912 2095.911621,421.843231 
	C2097.528320,457.628052 2123.713867,485.734497 2159.649902,490.257294 
	C2187.589600,493.773712 2215.648682,479.319550 2230.083008,453.975128 
	C2243.804443,429.882355 2241.711670,397.879089 2224.973389,376.171631 
	C2210.014893,356.772034 2190.079102,347.712402 2165.778564,347.019653 
	C2149.354248,346.551422 2134.529785,335.205811 2129.411377,320.166565 
	C2123.773438,303.601379 2128.197266,287.253479 2141.954346,275.382324 
M2666.499756,378.292023 
	C2680.497314,378.290405 2694.495361,378.348999 2708.492188,378.259521 
	C2714.642822,378.220215 2717.772705,375.181549 2717.377930,370.052246 
	C2717.038330,365.641998 2713.939209,363.317841 2707.992920,363.306458 
	C2686.330078,363.264923 2664.667480,363.289581 2643.004639,363.289307 
	C2641.221191,363.289276 2639.437744,363.289307 2637.434326,363.289307 
	C2637.434326,330.580353 2637.434326,298.490875 2637.434326,265.946655 
	C2639.471436,265.946655 2641.274658,265.946655 2643.077881,265.946655 
	C2685.403564,265.946564 2727.729248,265.948975 2770.054932,265.937897 
	C2771.884033,265.937408 2773.768066,266.069824 2775.531250,265.693970 
	C2779.710205,264.803345 2781.854248,261.970856 2781.562744,257.761292 
	C2781.285400,253.750992 2778.807129,251.474319 2774.801025,251.020905 
	C2773.482666,250.871735 2772.137451,250.943161 2770.804688,250.943054 
	C2722.979980,250.939590 2675.155273,250.937164 2627.330566,250.949875 
	C2625.733887,250.950302 2624.137207,251.108917 2622.167236,251.213654 
	C2622.167236,253.613846 2622.166992,255.583527 2622.166992,257.553223 
	C2622.167236,330.540039 2622.167236,403.526855 2622.167969,476.513672 
	C2622.168213,478.513275 2622.114014,480.515625 2622.197266,482.511993 
	C2622.395508,487.258087 2625.226074,490.526550 2629.207275,490.703278 
	C2633.591553,490.897949 2636.764160,487.803375 2637.149414,482.867157 
	C2637.265869,481.375916 2637.196289,479.869385 2637.196533,478.369843 
	C2637.198242,447.042175 2637.197754,415.714478 2637.197754,384.386810 
	C2637.197754,382.481750 2637.197754,380.576691 2637.197754,378.291931 
	C2647.218506,378.291931 2656.358887,378.291931 2666.499756,378.292023 
M507.654633,160.941376 
	C505.575928,152.968903 500.745972,148.500656 493.752777,148.080643 
	C487.488159,147.704391 481.465424,151.485886 479.061218,157.305069 
	C476.765198,162.862549 478.009033,169.250427 482.215942,173.506485 
	C486.418671,177.758301 492.828186,179.196747 498.365479,176.805542 
	C504.879059,173.992752 507.963348,168.865829 507.654633,160.941376 
M329.350891,337.977905 
	C328.571350,344.378540 330.832611,349.466858 336.239044,352.927582 
	C340.951630,355.944244 346.008850,356.037689 350.976898,353.523224 
	C356.963776,350.493103 360.119202,343.603851 358.687012,337.127167 
	C357.239380,330.580627 351.560577,325.818542 344.816864,325.496063 
	C337.529877,325.147614 332.087952,329.305725 329.350891,337.977905 
M612.074097,478.744019 
	C608.903198,484.618256 609.193115,490.339386 613.299561,495.583771 
	C617.148926,500.499786 622.438965,502.213837 628.467773,500.864197 
	C634.391968,499.537964 637.944885,495.500183 639.395935,489.715363 
	C641.081848,482.994080 637.706055,476.027588 631.499451,472.985321 
	C624.886658,469.743958 617.924500,471.619965 612.074097,478.744019 
M500.236511,346.825592 
	C495.196838,355.701782 497.514404,364.865448 505.826904,368.930176 
	C513.586426,372.724518 522.884705,369.129639 526.150452,361.072784 
	C528.811340,354.508118 526.423523,346.937866 520.469849,343.063354 
	C514.169006,338.962921 506.774750,340.154785 500.236511,346.825592 
M429.575012,389.913971 
	C431.696320,383.145844 430.223969,377.301056 424.584442,372.953644 
	C419.490967,369.027222 413.843292,368.760376 408.185120,371.863220 
	C402.905579,374.758392 400.105499,380.487549 400.808380,386.574249 
	C401.547699,392.976349 406.455231,398.154114 413.004486,399.441864 
	C419.533356,400.725616 425.324829,397.580811 429.575012,389.913971 
z"/>
<path fill="#FDFDFD" opacity="1.000000" stroke="none" 
	d="
M653.964966,369.423584 
	C654.150146,367.504517 654.743530,365.841736 654.289307,364.546326 
	C652.198486,358.584076 655.502197,355.179535 659.373169,351.372406 
	C681.474243,329.635864 703.366882,307.687378 725.339966,285.820526 
	C726.572021,284.594482 727.889221,283.453857 729.936157,281.562622 
	C729.936157,283.583466 729.984558,284.510376 729.929199,285.431061 
	C725.799316,354.162689 712.849060,420.957733 685.688049,484.549591 
	C660.730408,542.982788 625.151184,593.659363 575.527649,633.939453 
	C573.336365,635.718140 571.088013,637.426514 569.447571,638.712097 
	C555.299072,624.549316 541.370300,610.606567 527.175720,596.397766 
	C527.622070,595.919128 528.703552,594.686890 529.860291,593.529846 
	C554.487305,568.895874 579.156128,544.303528 603.705261,519.592285 
	C606.163757,517.117615 607.997986,516.580688 611.397034,518.071411 
	C626.551880,524.717712 643.611023,519.685974 653.043030,506.203735 
	C662.311584,492.954987 661.060730,475.163269 650.029480,463.341248 
	C638.855713,451.366516 620.963257,448.886871 607.057251,457.385895 
	C593.084167,465.925903 587.038696,482.759918 592.730591,498.266022 
	C593.876892,501.388794 593.106018,503.016357 590.993713,505.119598 
	C561.704529,534.283508 532.504517,563.536926 503.225403,592.710938 
	C501.826721,594.104553 499.895752,594.963989 497.347168,596.642151 
	C516.500183,615.352783 534.314514,632.755737 552.602234,650.621094 
	C550.273438,652.315125 549.017090,653.311584 547.681946,654.188049 
	C518.236328,673.518555 486.659882,688.373230 453.061005,698.881409 
	C450.598785,699.651428 447.431702,699.447754 444.934052,698.640076 
	C341.201080,665.094971 266.795471,598.248230 220.200241,500.063446 
	C194.802887,446.546509 180.388687,389.883667 173.166687,331.300812 
	C171.027496,313.948181 169.946411,296.463196 168.496460,279.029205 
	C168.209930,275.583862 168.455170,272.094269 168.455170,269.196899 
	C211.457626,312.217529 254.791214,355.569458 298.876526,399.673401 
	C304.592285,393.776642 309.047607,389.136078 313.553802,384.545319 
	C317.172852,380.858368 320.983185,377.349976 324.458374,373.534393 
	C326.555420,371.231964 328.318542,370.855621 331.335052,372.077576 
	C349.747253,379.536316 370.316040,369.938354 376.645203,351.174957 
	C382.912628,332.594482 371.900208,312.151489 352.923584,307.139252 
	C333.865204,302.105438 314.040466,314.068787 310.703583,333.593323 
	C309.634491,339.848724 311.144989,346.745544 312.507233,353.128662 
	C313.158417,356.179901 313.085876,357.846893 310.888306,359.961578 
	C307.302704,363.411987 304.062714,367.221527 300.321411,371.263550 
	C298.349243,369.474823 297.000641,368.351562 295.764313,367.115936 
	C254.269958,325.644318 212.807510,284.140717 171.249832,242.732697 
	C168.685867,240.177963 167.428635,237.704895 167.655045,234.013458 
	C168.470978,220.709885 169.062775,207.391220 169.594223,194.072464 
	C169.727112,190.741516 170.803055,189.406433 174.380447,188.644608 
	C196.357773,183.964401 218.270920,178.972183 240.141251,173.811783 
	C243.361145,173.052032 245.294968,173.521729 247.554245,175.845184 
	C256.499817,185.044815 265.585754,194.111572 274.776184,203.066910 
	C276.968018,205.202713 277.403076,207.076309 276.652008,210.058945 
	C271.889496,228.972214 288.062195,245.068695 306.956360,240.184006 
	C310.052979,239.383453 311.805969,240.110199 313.886475,242.221817 
	C334.473541,263.116394 355.194824,283.878967 375.748566,304.806061 
	C378.302185,307.406067 380.855377,308.468109 384.490356,308.441498 
	C405.655609,308.286346 426.823181,308.281647 447.988312,308.446014 
	C451.646973,308.474396 454.157684,307.317841 456.708313,304.760681 
	C504.964783,256.380798 553.339417,208.118713 601.553833,159.697052 
	C604.519714,156.718445 606.804749,156.537430 610.591187,157.833527 
	C629.333435,164.249039 648.204468,170.288635 667.031982,176.454956 
	C668.749329,177.017426 670.480103,177.538818 672.908997,178.300018 
	C671.317444,180.002090 670.152710,181.323059 668.909851,182.565887 
	C622.830811,228.645065 576.724854,274.697357 530.712463,320.843048 
	C528.183228,323.379700 526.207275,324.179291 522.544678,322.958923 
	C507.069885,317.802795 490.262573,324.669434 482.303894,338.942902 
	C474.456360,353.016998 477.524689,370.508087 489.731537,381.284241 
	C501.891449,392.018921 519.653625,392.790497 532.625671,383.147644 
	C545.844360,373.321320 550.407043,356.044617 543.381348,341.186401 
	C541.976990,338.216431 542.362122,336.637177 544.595215,334.410309 
	C593.924622,285.217773 643.189270,235.960159 692.388000,186.636948 
	C694.688782,184.330383 696.726990,183.844223 699.874634,184.524841 
	C708.171387,186.318939 716.552307,187.755081 724.939758,189.080582 
	C727.740112,189.523132 729.012024,190.579346 729.107849,193.481216 
	C729.729065,212.295227 730.516968,231.104156 731.025940,249.920807 
	C731.071960,251.623260 729.933167,253.766953 728.670959,255.035553 
	C700.223938,283.627228 671.707825,312.150543 643.067261,340.548065 
	C641.913147,341.692383 639.230774,342.200592 637.570618,341.780243 
	C627.902283,339.332153 619.257141,340.891083 612.200195,348.080231 
	C605.294312,355.115540 603.425049,363.739136 606.534241,373.022614 
	C607.703125,376.512604 605.847351,377.911865 604.001526,379.757965 
	C560.871887,422.894073 517.739502,466.027496 474.606415,509.160187 
	C452.686310,531.080139 430.765686,552.999512 408.837646,574.911438 
	C407.560974,576.187195 406.215363,577.393982 405.310913,578.247009 
	C394.068085,567.133789 383.101196,556.293335 371.833038,545.155029 
	C372.828613,544.108154 374.036377,542.782104 375.302948,541.514771 
	C392.621643,524.185730 410.018768,506.933746 427.170837,489.441437 
	C429.005066,487.570831 430.319183,484.321289 430.352692,481.691956 
	C430.611847,461.362213 430.561066,441.027252 430.431519,420.695068 
	C430.410400,417.385040 431.261749,415.394623 434.221771,413.460510 
	C448.206573,404.322754 453.349823,386.767792 446.861816,371.635529 
	C440.427795,356.629120 424.124298,348.061737 408.438538,351.444397 
	C391.956757,354.998688 380.498169,369.353638 381.000366,386.046967 
	C381.084473,388.842773 381.302826,391.896301 382.479675,394.339081 
	C384.478363,398.487671 382.940765,400.829712 380.034058,403.711884 
	C361.098877,422.487335 342.319946,441.421021 323.578430,460.390350 
	C321.504517,462.489441 319.642609,463.292267 316.595520,462.684967 
	C305.836578,460.540527 295.526581,465.531738 290.462769,474.943390 
	C285.444702,484.270020 287.051270,496.044464 294.385193,503.691010 
	C301.762939,511.383179 313.357361,513.461426 322.928345,508.807159 
	C332.645142,504.081879 338.688049,493.389954 336.262512,482.747711 
	C334.983795,477.137299 336.610352,474.078949 340.337860,470.392273 
	C358.229919,452.696259 375.881500,434.755768 393.496216,416.782288 
	C395.945831,414.282745 398.038422,413.051666 401.069305,415.519897 
	C401.440491,415.822174 401.977509,415.926300 402.444305,416.104950 
	C405.348267,417.216217 409.660858,417.545441 410.809082,419.623993 
	C412.299133,422.321411 411.314453,426.409882 411.318970,429.899658 
	C411.337280,444.066132 411.217072,458.234009 411.399719,472.398132 
	C411.448334,476.169495 410.413910,478.889313 407.674408,481.596924 
	C387.641846,501.396088 367.775696,521.363708 347.865845,541.286926 
	C346.594818,542.558777 345.397430,543.904236 343.797943,545.607178 
	C364.012268,565.950745 383.953033,586.018982 405.573059,607.777222 
	C407.193756,605.089294 408.001190,602.885437 409.506256,601.378113 
	C479.104156,531.678040 548.773926,462.049713 618.370972,392.348816 
	C620.915955,389.799988 623.122559,388.687897 627.004028,389.331207 
	C639.322571,391.372742 650.303101,383.142975 653.964966,369.423584 
z"/>
<path fill="#FBFBFB" opacity="1.000000" stroke="none" 
	d="
M344.331238,245.668671 
	C338.071808,239.409241 331.915833,233.534943 326.159668,227.291992 
	C324.779022,225.794586 323.873779,222.932800 324.198669,220.934021 
	C327.031464,203.507660 312.591827,189.293762 295.125671,192.442352 
	C293.579773,192.721024 291.284241,192.426773 290.259094,191.440277 
	C282.215851,183.700409 274.393036,175.731308 266.527344,167.807938 
	C266.214264,167.492569 266.153534,166.926666 265.888702,166.259506 
	C277.424225,161.781052 288.845154,157.201385 300.420471,153.052429 
	C301.747498,152.576767 304.355621,154.085815 305.664612,155.385071 
	C329.436920,178.980515 353.117493,202.668610 376.781189,226.373260 
	C388.308044,237.920059 399.760468,249.541168 411.631561,261.516998 
	C413.430359,259.834106 414.882996,258.550171 416.252197,257.182709 
	C436.060486,237.399612 455.890503,217.638016 475.613983,197.770676 
	C477.970703,195.396805 479.919769,194.643341 483.410278,195.629715 
	C499.550171,200.190659 515.994995,192.805542 523.491333,178.078308 
	C530.774841,163.769150 526.998291,146.262619 514.427429,136.061966 
	C501.837982,125.846191 484.150177,125.791145 471.469269,135.928238 
	C458.726349,146.114899 454.924377,163.427780 462.307190,178.326523 
	C463.441803,180.616165 464.095398,182.177841 461.868958,184.375748 
	C445.741211,200.296951 429.759766,216.366394 413.720459,232.377304 
	C413.267151,232.829788 412.684540,233.152740 412.676086,233.158951 
	C382.747131,203.215744 352.996704,173.451126 322.958923,143.399033 
	C323.771362,142.967346 325.268982,142.093887 326.829803,141.353607 
	C369.283691,121.217628 409.440826,97.330536 446.298767,68.081848 
	C448.478851,66.351868 449.876740,66.048149 452.236298,67.926033 
	C492.100342,99.651665 535.773865,125.058594 582.160461,145.935684 
	C583.207458,146.406921 584.224670,146.944260 585.901733,147.768066 
	C584.580566,149.231415 583.577393,150.448898 582.466125,151.558090 
	C537.766052,196.174591 493.083282,240.808517 448.252930,285.293701 
	C446.390015,287.142242 443.152649,288.493225 440.527679,288.541077 
	C424.369019,288.835632 408.201263,288.591034 392.039124,288.765625 
	C388.543396,288.803406 386.159485,287.611145 383.776733,285.195374 
	C370.788605,272.027130 357.660950,258.996552 344.331238,245.668671 
z"/>
<path fill="#F6F6F6" opacity="1.000000" stroke="none" 
	d="
M1205.348145,437.408569 
	C1187.401611,463.247894 1163.630371,480.245178 1133.266357,487.307922 
	C1124.412354,489.367371 1115.161011,490.419556 1106.065308,490.601044 
	C1083.082153,491.059540 1060.083740,490.762848 1037.091431,490.756439 
	C1036.277832,490.756195 1035.464233,490.626007 1034.282471,490.524902 
	C1034.282471,410.826660 1034.282471,331.278168 1034.282471,251.339844 
	C1035.392700,251.215851 1036.641724,250.955551 1037.890869,250.954758 
	C1060.549927,250.940338 1083.210693,250.780090 1105.867676,251.000763 
	C1171.880371,251.643707 1223.751465,302.613342 1225.399902,368.585022 
	C1226.020630,393.427795 1219.157471,416.293488 1205.348145,437.408569 
M1155.585938,278.764496 
	C1138.782593,269.710052 1120.800171,265.719116 1101.759521,265.913605 
	C1085.929443,266.075287 1070.096313,265.939728 1054.264526,265.956329 
	C1052.648438,265.958038 1051.032593,266.100525 1049.251221,266.185608 
	C1049.251221,336.102844 1049.251221,405.656952 1049.251221,475.452026 
	C1050.327148,475.572601 1051.121826,475.739227 1051.916504,475.739349 
	C1070.081299,475.741943 1088.248779,475.918274 1106.410156,475.662689 
	C1126.523560,475.379608 1145.064575,469.680298 1162.159180,458.950684 
	C1196.059326,437.672943 1215.458008,395.590515 1209.283569,356.167267 
	C1203.931274,321.992859 1185.920044,296.535980 1155.585938,278.764496 
z"/>
<path fill="#F6F6F6" opacity="1.000000" stroke="none" 
	d="
M1837.034058,265.067688 
	C1837.038452,262.746857 1836.968262,260.910309 1837.061157,259.082001 
	C1837.339478,253.610580 1839.714844,250.994400 1845.100342,250.988113 
	C1873.757935,250.954666 1902.453613,250.134613 1931.063965,251.324539 
	C1972.495117,253.047684 2008.177734,287.826447 2012.014404,328.500580 
	C2016.189697,372.764801 1989.731812,412.325104 1948.162842,423.114563 
	C1939.720215,425.305878 1930.764893,426.215057 1922.017822,426.403778 
	C1900.700562,426.863770 1879.366821,426.554596 1858.039673,426.555084 
	C1856.244751,426.555115 1854.449829,426.555054 1852.076294,426.555054 
	C1852.076294,428.860229 1852.076416,430.634949 1852.076172,432.409668 
	C1852.074463,448.904846 1852.077271,465.399994 1852.067383,481.895172 
	C1852.064941,485.920563 1850.758423,489.642578 1846.475830,490.136139 
	C1843.953003,490.426880 1840.850586,489.031525 1838.652710,487.481537 
	C1837.432129,486.620789 1837.190552,483.898346 1837.108765,481.989380 
	C1836.902466,477.166199 1837.034302,472.328461 1837.034302,467.496552 
	C1837.033813,400.182953 1837.034058,332.869324 1837.034058,265.067688 
M1997.030762,347.051483 
	C2000.626343,301.333649 1968.202515,266.089294 1922.364868,265.957550 
	C1900.541382,265.894836 1878.717773,265.940369 1856.894165,265.955597 
	C1855.446899,265.956635 1853.999512,266.117371 1852.439453,266.210571 
	C1852.439453,314.731873 1852.439453,362.921722 1852.439453,411.179565 
	C1853.448608,411.340698 1854.093018,411.533783 1854.737305,411.533386 
	C1878.059326,411.519867 1901.397827,412.037262 1924.699585,411.335205 
	C1963.076538,410.178925 1990.570068,385.656219 1997.030762,347.051483 
z"/>
<path fill="#F7F7F7" opacity="1.000000" stroke="none" 
	d="
M2921.000000,250.938980 
	C2954.989258,250.939026 2988.478271,250.937851 3021.967529,250.942703 
	C3023.632812,250.942947 3025.331299,250.794800 3026.956543,251.064178 
	C3030.656738,251.677353 3033.005371,253.880203 3033.270020,257.707001 
	C3033.544678,261.683960 3031.700195,264.541779 3027.775879,265.547363 
	C3025.882080,266.032684 3023.812988,265.931427 3021.823242,265.932312 
	C2979.503662,265.951172 2937.183838,265.946747 2894.864258,265.946838 
	C2893.075195,265.946838 2891.286133,265.946838 2889.240967,265.946838 
	C2889.240967,298.546478 2889.240967,330.594543 2889.240967,363.289062 
	C2891.294434,363.289062 2893.067383,363.289001 2894.840332,363.289032 
	C2921.665039,363.289764 2948.489502,363.275360 2975.314209,363.302368 
	C2981.690430,363.308807 2984.836182,365.547394 2985.153076,370.092621 
	C2985.478760,374.767151 2982.743896,377.967285 2977.724854,378.189209 
	C2972.237061,378.431824 2966.731201,378.288544 2961.233398,378.289948 
	C2938.740723,378.295593 2916.247803,378.298401 2893.755127,378.284027 
	C2891.211182,378.282410 2888.869629,377.867584 2888.886475,381.885223 
	C2889.015137,412.374847 2888.961670,442.865204 2888.985840,473.355347 
	C2888.986328,473.989685 2889.235352,474.623871 2889.471680,475.750305 
	C2891.304199,475.750305 2893.095947,475.750305 2894.887695,475.750305 
	C2937.374023,475.750458 2979.860352,475.745422 3022.346680,475.766937 
	C3024.333984,475.767944 3026.879639,475.285187 3028.181885,476.295532 
	C3030.320068,477.954346 3032.497803,480.446716 3033.112305,482.964966 
	C3033.917480,486.265778 3031.883057,489.117126 3028.380127,490.174805 
	C3026.821777,490.645355 3025.102295,490.738464 3023.456055,490.739410 
	C2975.138428,490.767883 2926.820557,490.764862 2878.502930,490.754028 
	C2877.195068,490.753754 2875.887451,490.611664 2874.253418,490.516724 
	C2874.253418,410.749573 2874.253418,331.187347 2874.253418,250.938980 
	C2889.654053,250.938980 2905.076904,250.938980 2921.000000,250.938980 
z"/>
<path fill="#F6F6F6" opacity="1.000000" stroke="none" 
	d="
M1343.601318,319.000244 
	C1343.601318,333.813232 1343.601318,348.126221 1343.601318,363.287354 
	C1345.834229,363.287354 1347.751099,363.287354 1349.667969,363.287384 
	C1375.992554,363.287537 1402.317261,363.278656 1428.641846,363.305725 
	C1430.629395,363.307770 1432.696411,363.266083 1434.586792,363.769653 
	C1438.025757,364.685760 1439.881104,367.174957 1439.805908,370.770477 
	C1439.728271,374.487579 1438.044922,377.228790 1434.176880,377.953125 
	C1432.233032,378.317169 1430.198486,378.279755 1428.204712,378.281189 
	C1402.046631,378.300293 1375.888672,378.293915 1349.730591,378.293915 
	C1347.929199,378.293915 1346.127930,378.293945 1343.968506,378.293945 
	C1343.968506,410.835999 1343.968506,442.889679 1343.968506,475.749084 
	C1345.915527,475.749084 1347.823608,475.749084 1349.731689,475.749115 
	C1392.384277,475.749390 1435.036865,475.737335 1477.689453,475.786316 
	C1479.808716,475.788727 1482.548706,475.606812 1483.897095,476.779053 
	C1485.794434,478.428589 1487.879639,481.401611 1487.639282,483.558533 
	C1487.372925,485.948639 1484.836304,488.351868 1482.773071,490.162018 
	C1481.762451,491.048676 1479.585083,490.743286 1477.935669,490.744141 
	C1429.784912,490.769104 1381.634155,490.766815 1333.483398,490.754272 
	C1332.031738,490.753876 1330.580078,490.596832 1328.854858,490.496979 
	C1328.854858,410.624603 1328.854858,331.060638 1328.854858,250.937775 
	C1330.652466,250.937775 1332.267822,250.937759 1333.883301,250.937759 
	C1381.867432,250.937973 1429.851685,250.937805 1477.835815,250.940796 
	C1479.001587,250.940872 1480.185181,250.852768 1481.329956,251.017746 
	C1485.295166,251.589203 1487.723267,253.856827 1487.933594,257.910004 
	C1488.140869,261.898773 1486.178467,264.664734 1482.243774,265.611450 
	C1480.497070,266.031769 1478.606567,265.935181 1476.781250,265.935852 
	C1434.461914,265.951324 1392.142456,265.947937 1349.823120,265.948059 
	C1348.012085,265.948059 1346.201172,265.948059 1343.601440,265.948059 
	C1343.601440,283.695740 1343.601440,301.097961 1343.601318,319.000244 
z"/>
<path fill="#F6F6F6" opacity="1.000000" stroke="none" 
	d="
M1679.000000,265.947021 
	C1651.688232,265.947021 1624.876465,265.947021 1597.684570,265.947021 
	C1597.684570,298.322510 1597.684570,330.380280 1597.684570,363.288696 
	C1599.498779,363.288696 1601.405273,363.288696 1603.311768,363.288696 
	C1629.644897,363.288757 1655.978027,363.283051 1682.311157,363.301392 
	C1684.137207,363.302673 1686.009033,363.260773 1687.779785,363.625549 
	C1691.524414,364.396973 1693.582886,366.894226 1693.544922,370.697418 
	C1693.505737,374.624084 1691.670776,377.430573 1687.504761,378.034912 
	C1685.702637,378.296387 1683.851196,378.281830 1682.022095,378.282806 
	C1655.855591,378.297089 1629.689209,378.292572 1603.522705,378.292572 
	C1601.717651,378.292572 1599.912598,378.292572 1597.710693,378.292572 
	C1597.710693,410.913452 1597.710693,443.098236 1597.710693,475.750092 
	C1599.953491,475.750092 1601.911499,475.750092 1603.869507,475.750092 
	C1646.202515,475.750244 1688.535522,475.747131 1730.868530,475.761658 
	C1732.695801,475.762299 1735.100830,475.227905 1736.227661,476.161163 
	C1738.444702,477.997101 1740.854492,480.460815 1741.522583,483.087555 
	C1742.350830,486.344269 1740.188110,489.183777 1736.680786,490.222534 
	C1735.273193,490.639404 1733.729370,490.740784 1732.247437,490.741547 
	C1683.581177,490.767212 1634.914795,490.764679 1586.248535,490.753479 
	C1585.123169,490.753235 1583.997925,490.605743 1582.590576,490.507172 
	C1582.590576,410.656311 1582.590576,331.083832 1582.590576,251.203156 
	C1584.210083,251.108459 1585.658936,250.950058 1587.107910,250.949677 
	C1635.274170,250.936996 1683.440552,250.939041 1731.606812,250.941925 
	C1732.773071,250.942001 1733.957642,250.850418 1735.102173,251.017731 
	C1739.073853,251.598450 1741.490356,253.908020 1741.696411,257.938477 
	C1741.900146,261.921722 1739.900757,264.701416 1735.964111,265.612000 
	C1734.052368,266.054230 1731.992554,265.932251 1729.999512,265.934784 
	C1713.166382,265.955963 1696.333130,265.946960 1679.000000,265.947021 
z"/>
<path fill="#F7F7F7" opacity="1.000000" stroke="none" 
	d="
M2352.011719,445.204468 
	C2346.510010,457.940765 2341.166504,470.330261 2335.780762,482.701324 
	C2335.053223,484.371704 2334.305420,486.091125 2333.233887,487.541779 
	C2330.979492,490.594696 2327.956299,491.459991 2324.413086,489.872772 
	C2321.041016,488.362122 2319.875488,485.529175 2320.377930,482.104584 
	C2320.662354,480.165100 2321.455078,478.262115 2322.243896,476.440155 
	C2353.679932,403.827881 2385.140869,331.226532 2416.605469,258.626556 
	C2417.200928,257.252838 2417.736572,255.825623 2418.533447,254.571671 
	C2421.576172,249.783905 2427.829590,249.683792 2430.958984,254.442383 
	C2432.134766,256.230743 2432.902100,258.303101 2433.746094,260.292572 
	C2464.185059,332.070038 2494.613770,403.851959 2525.025879,475.640900 
	C2525.868164,477.628876 2526.659180,479.661407 2527.216797,481.742188 
	C2528.311035,485.826752 2526.448975,488.549744 2522.769775,490.084625 
	C2519.157959,491.591278 2516.206299,490.355865 2514.096191,487.265778 
	C2513.076416,485.772949 2512.415771,484.018341 2511.701660,482.335938 
	C2502.200439,459.946320 2492.643311,437.579590 2483.310791,415.119659 
	C2481.900391,411.725098 2480.275879,410.350861 2476.435547,410.368591 
	C2441.615479,410.529358 2406.794434,410.524872 2371.974365,410.374176 
	C2368.208252,410.357880 2366.375977,411.549133 2364.973145,415.006836 
	C2360.903809,425.037445 2356.455811,434.914459 2352.011719,445.204468 
M2448.698242,333.813049 
	C2440.922363,315.499298 2433.146484,297.185547 2424.814941,277.563141 
	C2407.544434,317.481537 2390.873291,356.014679 2373.936035,395.162476 
	C2407.862549,395.162476 2440.865967,395.162476 2474.694580,395.162476 
	C2465.970459,374.588196 2457.476074,354.555939 2448.698242,333.813049 
z"/>
<path fill="#F6F6F6" opacity="1.000000" stroke="none" 
	d="
M2141.679199,275.615356 
	C2128.197266,287.253479 2123.773438,303.601379 2129.411377,320.166565 
	C2134.529785,335.205811 2149.354248,346.551422 2165.778564,347.019653 
	C2190.079102,347.712402 2210.014893,356.772034 2224.973389,376.171631 
	C2241.711670,397.879089 2243.804443,429.882355 2230.083008,453.975128 
	C2215.648682,479.319550 2187.589600,493.773712 2159.649902,490.257294 
	C2123.713867,485.734497 2097.528320,457.628052 2095.911621,421.843231 
	C2095.603760,415.034912 2097.594971,412.016571 2102.613281,411.684448 
	C2107.815186,411.340149 2110.550781,414.447815 2110.915283,421.115112 
	C2112.541992,450.883484 2135.833496,474.281525 2165.201416,475.649628 
	C2193.768799,476.980438 2219.140625,455.665955 2223.560547,426.622833 
	C2228.188721,396.210754 2205.218506,366.285767 2174.522949,362.862579 
	C2164.629395,361.759216 2154.658447,361.724884 2145.201172,357.616577 
	C2123.580811,348.224243 2110.308350,326.188293 2112.016357,301.656219 
	C2113.582275,279.164368 2130.472412,258.884796 2152.581299,252.950882 
	C2176.011230,246.662384 2200.071533,255.418564 2213.219971,275.019287 
	C2216.665283,280.155029 2216.550293,284.782593 2212.912354,287.398193 
	C2208.872070,290.303040 2204.960693,289.001312 2200.916016,283.405670 
	C2186.725830,263.773956 2160.788086,260.244446 2141.679199,275.615356 
z"/>
<path fill="#F7F7F7" opacity="1.000000" stroke="none" 
	d="
M2665.999512,378.291992 
	C2656.358887,378.291931 2647.218506,378.291931 2637.197754,378.291931 
	C2637.197754,380.576691 2637.197754,382.481750 2637.197754,384.386810 
	C2637.197754,415.714478 2637.198242,447.042175 2637.196533,478.369843 
	C2637.196289,479.869385 2637.265869,481.375916 2637.149414,482.867157 
	C2636.764160,487.803375 2633.591553,490.897949 2629.207275,490.703278 
	C2625.226074,490.526550 2622.395508,487.258087 2622.197266,482.511993 
	C2622.114014,480.515625 2622.168213,478.513275 2622.167969,476.513672 
	C2622.167236,403.526855 2622.167236,330.540039 2622.166992,257.553223 
	C2622.166992,255.583527 2622.167236,253.613846 2622.167236,251.213654 
	C2624.137207,251.108917 2625.733887,250.950302 2627.330566,250.949875 
	C2675.155273,250.937164 2722.979980,250.939590 2770.804688,250.943054 
	C2772.137451,250.943161 2773.482666,250.871735 2774.801025,251.020905 
	C2778.807129,251.474319 2781.285400,253.750992 2781.562744,257.761292 
	C2781.854248,261.970856 2779.710205,264.803345 2775.531250,265.693970 
	C2773.768066,266.069824 2771.884033,265.937408 2770.054932,265.937897 
	C2727.729248,265.948975 2685.403564,265.946564 2643.077881,265.946655 
	C2641.274658,265.946655 2639.471436,265.946655 2637.434326,265.946655 
	C2637.434326,298.490875 2637.434326,330.580353 2637.434326,363.289307 
	C2639.437744,363.289307 2641.221191,363.289276 2643.004639,363.289307 
	C2664.667480,363.289581 2686.330078,363.264923 2707.992920,363.306458 
	C2713.939209,363.317841 2717.038330,365.641998 2717.377930,370.052246 
	C2717.772705,375.181549 2714.642822,378.220215 2708.492188,378.259521 
	C2694.495361,378.348999 2680.497314,378.290405 2665.999512,378.291992 
z"/>
<path fill="#F5F5F5" opacity="1.000000" stroke="none" 
	d="
M507.698151,161.353455 
	C507.963348,168.865829 504.879059,173.992752 498.365479,176.805542 
	C492.828186,179.196747 486.418671,177.758301 482.215942,173.506485 
	C478.009033,169.250427 476.765198,162.862549 479.061218,157.305069 
	C481.465424,151.485886 487.488159,147.704391 493.752777,148.080643 
	C500.745972,148.500656 505.575928,152.968903 507.698151,161.353455 
z"/>
<path fill="#F5F5F5" opacity="1.000000" stroke="none" 
	d="
M329.438141,337.578979 
	C332.087952,329.305725 337.529877,325.147614 344.816864,325.496063 
	C351.560577,325.818542 357.239380,330.580627 358.687012,337.127167 
	C360.119202,343.603851 356.963776,350.493103 350.976898,353.523224 
	C346.008850,356.037689 340.951630,355.944244 336.239044,352.927582 
	C330.832611,349.466858 328.571350,344.378540 329.438141,337.578979 
z"/>
<path fill="#F6F6F6" opacity="1.000000" stroke="none" 
	d="
M612.274414,478.427826 
	C617.924500,471.619965 624.886658,469.743958 631.499451,472.985321 
	C637.706055,476.027588 641.081848,482.994080 639.395935,489.715363 
	C637.944885,495.500183 634.391968,499.537964 628.467773,500.864197 
	C622.438965,502.213837 617.148926,500.499786 613.299561,495.583771 
	C609.193115,490.339386 608.903198,484.618256 612.274414,478.427826 
z"/>
<path fill="#F7F7F7" opacity="1.000000" stroke="none" 
	d="
M500.460754,346.539001 
	C506.774750,340.154785 514.169006,338.962921 520.469849,343.063354 
	C526.423523,346.937866 528.811340,354.508118 526.150452,361.072784 
	C522.884705,369.129639 513.586426,372.724518 505.826904,368.930176 
	C497.514404,364.865448 495.196838,355.701782 500.460754,346.539001 
z"/>
<path fill="#F6F6F6" opacity="1.000000" stroke="none" 
	d="
M429.420898,390.262695 
	C425.324829,397.580811 419.533356,400.725616 413.004486,399.441864 
	C406.455231,398.154114 401.547699,392.976349 400.808380,386.574249 
	C400.105499,380.487549 402.905579,374.758392 408.185120,371.863220 
	C413.843292,368.760376 419.490967,369.027222 424.584442,372.953644 
	C430.223969,377.301056 431.696320,383.145844 429.420898,390.262695 
z"/>
<path fill="#010101" opacity="1.000000" stroke="none" 
	d="
M1155.911133,278.939117 
	C1185.920044,296.535980 1203.931274,321.992859 1209.283569,356.167267 
	C1215.458008,395.590515 1196.059326,437.672943 1162.159180,458.950684 
	C1145.064575,469.680298 1126.523560,475.379608 1106.410156,475.662689 
	C1088.248779,475.918274 1070.081299,475.741943 1051.916504,475.739349 
	C1051.121826,475.739227 1050.327148,475.572601 1049.251221,475.452026 
	C1049.251221,405.656952 1049.251221,336.102844 1049.251221,266.185608 
	C1051.032593,266.100525 1052.648438,265.958038 1054.264526,265.956329 
	C1070.096313,265.939728 1085.929443,266.075287 1101.759521,265.913605 
	C1120.800171,265.719116 1138.782593,269.710052 1155.911133,278.939117 
z"/>
<path fill="#020202" opacity="1.000000" stroke="none" 
	d="
M1996.971802,347.501221 
	C1990.570068,385.656219 1963.076538,410.178925 1924.699585,411.335205 
	C1901.397827,412.037262 1878.059326,411.519867 1854.737305,411.533386 
	C1854.093018,411.533783 1853.448608,411.340698 1852.439453,411.179565 
	C1852.439453,362.921722 1852.439453,314.731873 1852.439453,266.210571 
	C1853.999512,266.117371 1855.446899,265.956635 1856.894165,265.955597 
	C1878.717773,265.940369 1900.541382,265.894836 1922.364868,265.957550 
	C1968.202515,266.089294 2000.626343,301.333649 1996.971802,347.501221 
z"/>
<path fill="#050505" opacity="1.000000" stroke="none" 
	d="
M2448.839844,334.168365 
	C2457.476074,354.555939 2465.970459,374.588196 2474.694580,395.162476 
	C2440.865967,395.162476 2407.862549,395.162476 2373.936035,395.162476 
	C2390.873291,356.014679 2407.544434,317.481537 2424.814941,277.563141 
	C2433.146484,297.185547 2440.922363,315.499298 2448.839844,334.168365 
z"/>
</svg>