<?xml version="1.0" encoding="UTF-8"?>
<svg xmlns="http://www.w3.org/2000/svg" viewBox="0 0 255.15 48.46" overflow="visible">
  <defs>
    <style>
      .cls-1 {
        font-family: DMMono-Medium, 'DM Mono';
        font-size: 43px;
        font-weight: 500;
      }

      .cls-1, .cls-2 {
        fill: #fff;
      }
    </style>
  </defs>
  <g id="file-5_图像" data-name="file-5 图像">
    <path class="cls-2" d="M30.7,34.13c-.62.48-1.3.69-2.05.41-.4-.14-.66-.04-.94.24-1.45,1.48-2.92,2.95-4.39,4.41-.23.22-.2.36.01.56.72.7,1.42,1.4,2.12,2.12.21.22.37.21.59.03,1.19-1.01,2.33-2.08,3.32-3.3,2.06-2.51,3.52-5.34,4.59-8.4,1.18-3.38,1.77-6.87,2.03-10.43,0-.09.03-.2-.08-.26-.15,0-.23.12-.32.22-1.37,1.36-2.73,2.72-4.09,4.08-.19.19-.37.39-.33.7.11.88-.66,1.76-1.56,1.73-.39-.01-.66.11-.93.38-4.32,4.34-8.65,8.67-12.99,12.99-.17.17-.25.41-.47.53-.18-.08-.28-.22-.4-.34-1.08-1.08-2.15-2.16-3.23-3.24q-.35-.35,0-.71c1.21-1.21,2.41-2.42,3.63-3.62.25-.25.37-.52.36-.88-.02-.95,0-1.9,0-2.85,0-.21-.02-.41-.25-.47-.36-.09-.7-.48-1.11.34-.61,1.21-1.59,2.18-2.79,2.8-.53.27-.68.61-.61,1.04.19,1.18-.92,2.12-2.06,1.74-.75-.25-1.21-1.02-1.07-1.82.13-.8.8-1.31,1.67-1.26.26.01.48-.02.67-.21,1.16-1.17,2.33-2.33,3.49-3.5.2-.2.27-.42.2-.72-.39-1.63,1.07-3.09,2.66-2.68.89.23,1.46.8,1.65,1.68.19.87-.05,1.65-.78,2.21-.27.21-.37.44-.37.77.01,1.11,0,2.22,0,3.33,0,.46-.14.82-.47,1.14-1.02,1-2.02,2.02-3.03,3.02-.22.21-.2.35.09.59.49.4.93.84,1.34,1.33.3.36.46.4.75.12,4.09-4.1,8.19-8.2,12.29-12.29.2-.2.27-.38.21-.68-.22-1.11.75-2.11,1.87-1.89.25.05.46.02.65-.17,1.75-1.75,3.5-3.5,5.25-5.25.18-.18.27-.39.26-.65-.05-1.06-.1-2.12-.14-3.18-.01-.29-.16-.41-.42-.46-.38-.07-.77-.12-1.15-.22-.39-.1-.67,0-.94.28-1.14,1.16-2.29,2.3-3.43,3.45-1.88,1.88-3.76,3.76-5.65,5.63-.23.23-.33.44-.18.77.18.42.18.89.06,1.33-.33,1.22-1.54,1.88-2.78,1.54-1.12-.31-1.81-1.53-1.52-2.68.3-1.19,1.47-1.9,2.68-1.59.32.08.53.01.75-.21,2.87-2.88,5.74-5.75,8.61-8.62.3-.3.28-.39-.14-.53-1.07-.35-2.14-.69-3.2-1.06-.35-.12-.73-.03-.99.23-2.98,3.01-5.98,6-8.96,9-.27.27-.56.39-.96.36-1.13-.07-2.26-.08-3.39,0-.52.04-.89-.11-1.24-.47-1.19-1.22-2.4-2.43-3.6-3.65-.19-.2-.38-.31-.67-.27-1.16.18-1.98-.6-1.87-1.76.03-.26.06-.53-.23-.73-.57-.4-1.11-.87-1.47-1.47-.16-.27-.39-.35-.65-.29-1.34.3-2.68.61-4.02.91-.29.06-.43.22-.43.5,0,.6,0,1.2-.09,1.79-.09.67.17,1.13.65,1.6,2.49,2.44,4.94,4.92,7.41,7.39.38.38.35.35.77-.01.32-.28.44-.73.32-1.14-.1-.34-.08-.71,0-1.06.28-1.1,1.46-1.79,2.6-1.52,1.19.28,1.95,1.45,1.7,2.6-.29,1.31-1.51,2.06-2.8,1.68-.36-.1-.59-.03-.83.25-.23.27-.47.52-.72.76-.75.7-.63.82-1.07.37-2.53-2.54-5.07-5.08-7.6-7.61-.09-.09-.16-.22-.31-.22-.1.09-.09.2-.08.31.17,1.69.28,3.39.56,5.07.56,3.41,1.54,6.69,3.09,9.78,1.22,2.43,2.76,4.63,4.71,6.53,2.61,2.55,5.69,4.33,9.14,5.49.3.1.59.12.89.02,2.04-.65,3.97-1.55,5.76-2.73.13-.08.28-.15.34-.36-1.14-1.09-2.29-2.19-3.41-3.35.2-.18.38-.32.54-.48,1.74-1.73,3.46-3.47,5.21-5.19.29-.28.37-.54.26-.94-.21-.78.03-1.47.6-2.03.6-.58,1.32-.8,2.12-.56,1.74.51,2.21,2.53.86,3.84M18.65,18.78c2.67-2.67,5.37-5.31,8.06-8.05-.23-.12-.36-.19-.49-.25-2.77-1.25-5.36-2.79-7.77-4.65-.42-.33-.43-.33-.88.02-2.19,1.71-4.57,3.11-7.07,4.32-.48.23-.5.3-.11.69,1.66,1.67,3.33,3.33,4.99,5,.27.27.41.21.7-.12.68-.78,1.42-1.51,2.21-2.18.46-.39.61-.7.41-1.26-.51-1.49.79-3.08,2.47-2.8,1.25.21,2.04,1.34,1.81,2.61-.22,1.19-1.38,1.98-2.59,1.74-.36-.07-.6.02-.84.27-1.15,1.16-2.31,2.32-3.46,3.47q-.47.47-.93.01c-1-1-2-2-3-3-1.08-1.08-2.16-2.15-3.24-3.23-.22-.23-.44-.3-.75-.17-.46.2-.93.35-1.4.54-.37.15-.4.26-.12.55.32.33.65.65.97.99.16.17.4.27.63.27,1.14-.02,1.78.61,1.78,1.76,0,.35.12.6.52.83,1.2.7,2.18,1.71,2.9,2.89.3.49.67.78,1.16.73.62-.07,1.25-.09,1.86-.03.9.09,1.6-.18,2.16-.94M30.11,32.79c.18-.58-.04-1.08-.55-1.25-.47-.16-1.02.13-1.17.61-.14.43.06.9.48,1.11.45.22.89.07,1.24-.46M15.74,26.82c.43.05.72-.17.92-.52.19-.32.16-.63-.05-.92-.22-.3-.52-.44-.89-.38-.41.06-.73.41-.76.82-.04.49.19.81.78,1.01M21.43,11.04c-.37-.28-.74-.33-1.08-.13-.33.2-.52.58-.46.92.08.41.37.7.77.79.31.06.71-.12.91-.42.22-.34.19-.69-.14-1.15M12.19,23.04c-.02-.11-.02-.22-.07-.32-.15-.34-.41-.54-.78-.57-.4-.03-.66.16-.86.5-.19.32-.17.63.04.92.21.28.51.47.88.41.44-.07.71-.38.79-.94M21.2,24.35c.03.06.06.13.1.19.31.44.88.53,1.31.21.39-.3.48-.87.19-1.26-.32-.44-.87-.5-1.31-.15-.31.25-.35.59-.29,1.01Z"/>
  </g>
  <g id="DeepSafe">
    <text class="cls-1" transform="translate(53.82 36.55)"><tspan x="0" y="0">DeepSafe</tspan></text>
  </g>
</svg>